<svg width="1040" height="800" viewBox="0 0 501.2 371.3"><g font-family="'Helvetica Neue'" font-size="6"><text transform="translate(88.571 251.38)">Buena Vista</text><text transform="translate(319.112 238.664)">Spartan-Keyes</text><text transform="translate(183.884 151.856)">River Street</text></g><g><line stroke="#000" stroke-width=".5" stroke-miterlimit="10" x1="113.7" x2="178.4" y2="86.9" fill="none"/><line stroke="#000" stroke-width=".5" stroke-miterlimit="10" x1="178.4" y1="86.9" x2="233.2" y2="227.9" fill="none"/><line stroke="#000" stroke-width=".5" stroke-miterlimit="10" x1="233.2" y1="227.9" x2="355.4" y2="196.4" fill="none"/><line stroke="#000" stroke-width=".5" stroke-miterlimit="10" x1="355.4" y1="196.4" x2="501.2" y2="80.3" fill="none"/><line stroke="#000" stroke-width=".5" stroke-miterlimit="10" x1="233.2" y1="227.9" x2="250.6" y2="281" fill="none"/><line x1="250.6" y1="281" x2="310.6" y2="371.3" fill="none"/><line stroke="#000" stroke-width=".5" stroke-miterlimit="10" x1="233.2" y1="227.9" x2="197.2" y2="246.1" fill="none"/><line stroke="#000" stroke-width=".5" stroke-miterlimit="10" x1="197.2" y1="246.1" x2="156.3" y2="283.7" fill="none"/><line stroke="#000" stroke-width=".5" stroke-miterlimit="10" x1="156.3" y1="283.7" x2="91.6" y2="283.7" fill="none"/><line stroke="#000" stroke-width=".5" stroke-miterlimit="10" x1="91.6" y1="283.7" x2="6.5" y2="277.7" fill="none"/><text transform="matrix(.806 -.592 .592 .806 423.925 148.464)" font-family="'Helvetica Neue'" font-size="6">SINCLAIR FWY</text><text transform="matrix(.615 .789 -.789 .615 141.991 34.766)" font-family="'Helvetica Neue'" font-size="6">GUADALUPE PKWY</text><text transform="translate(313.713 135.163)" font-family="'Helvetica Neue'" font-size="6">Naglee Park</text><text transform="translate(215.205 86.906)"><tspan x="0" y="0" font-family="'Helvetica Neue'" font-size="6">Hensley</tspan><tspan x="0" y="7.2" font-family="'Helvetica Neue'" font-size="6">Histroic</tspan><tspan x="0" y="14.4" font-family="'Helvetica Neue'" font-size="6">District</tspan></text><text transform="translate(261.927 196.383)" font-family="'Helvetica Neue'" font-size="6">SoFa</text></g></svg>