<?xml version="1.0" encoding="utf-8"?>
<!-- Generator: Adobe Illustrator 17.1.0, SVG Export Plug-In . SVG Version: 6.00 Build 0)  -->
<!DOCTYPE svg PUBLIC "-//W3C//DTD SVG 1.1//EN" "http://www.w3.org/Graphics/SVG/1.1/DTD/svg11.dtd">
<svg width='1040' height='800'
	 viewBox="0 0 501.2 371.3" id='san-jose-svg' >
<g id="Basemap">
	<text transform="matrix(1 0 0 1 88.5708 251.3804)" font-family="'Helvetica Neue'" font-size="6">Buena Vista</text>
	<text transform="matrix(1 0 0 1 319.1123 238.6636)" font-family="'Helvetica Neue'" font-size="6">Spartan-Keyes</text>
	<text transform="matrix(1 0 0 1 183.8838 151.856)" font-family="'Helvetica Neue'" font-size="6">River Street</text>
</g>
<g id="Outline">
	<g id="Layer_4">
	</g>
	<line fill="none" stroke="#000000" stroke-width="0.5" stroke-miterlimit="10" x1="113.7" y1="0" x2="178.4" y2="86.9"/>
	<line fill="none" stroke="#000000" stroke-width="0.5" stroke-miterlimit="10" x1="178.4" y1="86.9" x2="233.2" y2="227.9"/>
	<line fill="none" stroke="#000000" stroke-width="0.5" stroke-miterlimit="10" x1="233.2" y1="227.9" x2="355.4" y2="196.4"/>
	<line fill="none" stroke="#000000" stroke-width="0.5" stroke-miterlimit="10" x1="355.4" y1="196.4" x2="501.2" y2="80.3"/>
	<line fill="none" stroke="#000000" stroke-width="0.5" stroke-miterlimit="10" x1="233.2" y1="227.9" x2="250.6" y2="281"/>
	<line fill="none" stroke-width="0.5" stroke-miterlimit="10" x1="250.6" y1="281" x2="310.6" y2="371.3"/>
	<line fill="none" stroke="#000000" stroke-width="0.5" stroke-miterlimit="10" x1="233.2" y1="227.9" x2="197.2" y2="246.1"/>
	<line fill="none" stroke="#000000" stroke-width="0.5" stroke-miterlimit="10" x1="197.2" y1="246.1" x2="156.3" y2="283.7"/>
	<line fill="none" stroke="#000000" stroke-width="0.5" stroke-miterlimit="10" x1="156.3" y1="283.7" x2="91.6" y2="283.7"/>
	<line fill="none" stroke="#000000" stroke-width="0.5" stroke-miterlimit="10" x1="91.6" y1="283.7" x2="6.5" y2="277.7"/>
	<text transform="matrix(0.8061 -0.5918 0.5918 0.8061 423.9253 148.4639)" font-family="'Helvetica Neue'" font-size="6">SINCLAIR FWY</text>
	<text transform="matrix(0.6145 0.7889 -0.7889 0.6145 141.9909 34.7657)" font-family="'Helvetica Neue'" font-size="6">GUADALUPE PKWY</text>
	<text transform="matrix(1 0 0 1 313.7129 135.1626)" font-family="'Helvetica Neue'" font-size="6">Naglee Park</text>
	<text transform="matrix(1 0 0 1 215.2052 86.9059)"><tspan x="0" y="0" font-family="'Helvetica Neue'" font-size="6">Hensley</tspan><tspan x="0" y="7.2" font-family="'Helvetica Neue'" font-size="6">Histroic </tspan><tspan x="0" y="14.4" font-family="'Helvetica Neue'" font-size="6">District</tspan></text>
	<text transform="matrix(1 0 0 1 261.9266 196.3828)" font-family="'Helvetica Neue'" font-size="6">SoFa</text>
</g>
</svg>
